<?xml version="1.0" encoding="utf-8"?>
<!-- Generator: Adobe Illustrator 27.2.0, SVG Export Plug-In . SVG Version: 6.00 Build 0)  -->
<svg version="1.1" id="Capa_2" xmlns="http://www.w3.org/2000/svg" xmlns:xlink="http://www.w3.org/1999/xlink" x="0px" y="0px"
	 viewBox="0 0 3840 2160" style="enable-background:new 0 0 3840 2160;" xml:space="preserve">
<style type="text/css">
	.st0{fill:url(#SVGID_1_);}
	.st1{fill:url(#SVGID_00000153677481537763292090000005142924902136148637_);}
	.st2{fill:url(#SVGID_00000093890548607466197010000006341983390799574443_);}
	.st3{fill:#FFFFFF;}
	.st4{fill:url(#SVGID_00000106835262968501094020000001472343470696223361_);}
	.st5{fill:url(#SVGID_00000017474607918280654960000009981522726256966587_);}
	.st6{fill:url(#SVGID_00000049944816384154979520000002168221763803041700_);}
	.st7{fill:url(#SVGID_00000009571796873254010770000012556534239189547164_);}
	.st8{fill:url(#SVGID_00000183967615379123945010000010314264029062239384_);}
	.st9{fill:url(#SVGID_00000116217491184081853070000008958901618865248425_);}
	.st10{fill:#00778B;}
	.st11{fill:#0BA4B6;}
	.st12{fill:#89BCCC;}
</style>
<linearGradient id="SVGID_1_" gradientUnits="userSpaceOnUse" x1="885.9368" y1="2176.5369" x2="2191.03" y2="393.6862" gradientTransform="matrix(6.123234e-17 -1 1 6.123234e-17 -678.6277 1682.5638)">
	<stop  offset="0" style="stop-color:#89BCCC"/>
	<stop  offset="1" style="stop-color:#00778B"/>
</linearGradient>
<path class="st0" d="M-365.2-19l4116.5-60l-42.8,75.9c-342.6,78-525.9,371.1-808,457.6c-79.4,24.3-160.4,41.8-240.7,62.7
	c-336.8,87.3-673.7,174.5-1010.6,261.8c-198.4,51.4-361.5,137.9-559.9,189.3c-195.2,100.5-388.7,192.4-489.5,390.8
	c-57.7,113.5-120.4,230.1-216.8,315.7c-121.9,108.4-275.2,180-428.5,226.4c-103,31.2-211.8,53.6-319.7,56.9V-19z"/>
<linearGradient id="SVGID_00000042013817363028640180000018098041215403781298_" gradientUnits="userSpaceOnUse" x1="-496.4568" y1="2598.6277" x2="1701.5845" y2="2598.6277" gradientTransform="matrix(6.123234e-17 -1 1 6.123234e-17 -678.6277 1682.5638)">
	<stop  offset="0" style="stop-color:#89BCCC"/>
	<stop  offset="1" style="stop-color:#00778B"/>
</linearGradient>
<path style="fill:url(#SVGID_00000042013817363028640180000018098041215403781298_);" d="M3717.5-19h487.7c0,0,0,1302.5,0,1302.5
	c-253.4,85.3-328.1,335.1-494.3,513.6c-183.5,197.3-449.2,295.9-702.6,367.4c-15.7,4.4-36.8,14.6-53,14.6c-0.1,0-3320.4,0-3320.4,0
	v-221c107.9-3.3,216.7-25.7,319.7-56.9c129.4-39.2,255.3-94.9,363.9-176.3c120.8-90.5,189.5-203.8,260.4-334.4
	c155.1-285.5,407-439.8,714.4-523c201.3-54.5,404.3-101,606.6-151.6c253.3-63.3,505-137.3,756.1-209.7
	c226.8-65.4,450.3-157.6,637.4-305.3c121-95.4,255.5-194.7,415.2-204C3708.5-3.1,3717.5-19,3717.5-19z"/>
<linearGradient id="SVGID_00000106115854239656377820000012217784769855041691_" gradientUnits="userSpaceOnUse" x1="-496.4568" y1="4242.5039" x2="399.1198" y2="4242.5039" gradientTransform="matrix(6.123234e-17 -1 1 6.123234e-17 -678.6277 1682.5638)">
	<stop  offset="0" style="stop-color:#00778B"/>
	<stop  offset="1" style="stop-color:#89BCCC"/>
</linearGradient>
<path style="fill:url(#SVGID_00000106115854239656377820000012217784769855041691_);" d="M4188.8,1283.4c0,0,0,895.6,0,895.6H2938.9
	c120.3-32.3,238.8-75.1,353.4-123.5c109.3-46.1,217-96.6,313.1-167c108.8-79.7,174.3-201.2,245.4-312.6
	c70-109.8,163.5-213.5,282.8-270.1C4138.8,1303.3,4188.8,1285.2,4188.8,1283.4z"/>
</svg>
