<?xml version="1.0" encoding="utf-8"?>
<!-- Generator: Adobe Illustrator 27.2.0, SVG Export Plug-In . SVG Version: 6.00 Build 0)  -->
<svg version="1.1" id="Capa_2" xmlns="http://www.w3.org/2000/svg" xmlns:xlink="http://www.w3.org/1999/xlink" x="0px" y="0px"
	 viewBox="0 0 1080 2383.7" style="enable-background:new 0 0 1080 2383.7;" xml:space="preserve">
<style type="text/css">
	.st0{fill:url(#SVGID_1_);}
	.st1{fill:url(#SVGID_00000106140179461151161180000006685326843218061201_);}
	.st2{fill:url(#SVGID_00000047027493985092468750000003265059534484892307_);}
	.st3{fill:#FFFFFF;}
	.st4{fill:url(#SVGID_00000166656770586467128490000015015764934684352440_);}
	.st5{fill:url(#SVGID_00000107560962049309769120000000533094765602030980_);}
	.st6{fill:url(#SVGID_00000062911722103723312770000003843648865395445901_);}
	.st7{fill:none;}
	.st8{font-family:'Poppins-Bold';}
	.st9{font-size:75px;}
	.st10{fill:#00778B;}
	.st11{fill:#0BA4B6;}
	.st12{fill:#89BCCC;}
</style>
<g>
	<linearGradient id="SVGID_1_" gradientUnits="userSpaceOnUse" x1="672.8045" y1="961.665" x2="1358.9243" y2="24.3764">
		<stop  offset="0" style="stop-color:#0BA4B6"/>
		<stop  offset="1" style="stop-color:#00778B"/>
	</linearGradient>
	<path class="st0" d="M1116.5-6.9v2141.6l-36.5-20.6c-9.4-162-166.5-260-211.9-408c-12.8-41.7-22-84.1-32.9-126.3
		c-45.8-176.7-91.5-353.4-137.3-530.1c-27-104-53.9-208.1-80.9-312.2c-52.7-102.4-119.4-185.5-223.5-238.3
		C334.1,469.1,273,436.1,228,385.6c-56.8-63.9-94.4-144.4-118.8-224.8C92.9,106.8,81.1,49.7,79.4-6.9H1116.5z"/>
	
		<linearGradient id="SVGID_00000034773436651893399080000014444212959204901262_" gradientUnits="userSpaceOnUse" x1="-36.51" y1="1191.8298" x2="1116.51" y2="1191.8298">
		<stop  offset="0" style="stop-color:#0BA4B6"/>
		<stop  offset="1" style="stop-color:#00778B"/>
	</linearGradient>
	<path style="fill:url(#SVGID_00000034773436651893399080000014444212959204901262_);" d="M1116.5,2134.7v255.8H433.3
		c-32.4-96.2-114.1-155.7-198-205.5c-36.9-21.9-72.6-44.4-101-77.5c-47-54.8-78.1-121.2-106-187.2c-25.4-60.1-47.8-122.3-64.8-185.4
		V-6.9H79.4c1.7,56.6,13.5,113.7,29.8,167.7c24.4,80.4,61.9,160.8,118.8,224.8c44.9,50.6,106.1,83.5,165.6,113.7
		c104.1,52.9,170.7,135.9,223.5,238.3c27,104.1,53.9,208.1,80.9,312.2c45.8,176.7,91.5,353.4,137.3,530.1
		c10.9,42.2,20.1,84.6,32.9,126.3c45.4,148,202.5,246,211.9,408L1116.5,2134.7z"/>
	
		<linearGradient id="SVGID_00000154422019604383086880000000602334440219833508_" gradientUnits="userSpaceOnUse" x1="-36.51" y1="2062.7249" x2="433.28" y2="2062.7249">
		<stop  offset="0" style="stop-color:#00778B"/>
		<stop  offset="1" style="stop-color:#0BA4B6"/>
	</linearGradient>
	<path style="fill:url(#SVGID_00000154422019604383086880000000602334440219833508_);" d="M433.3,2390.6H-36.5v-655.7
		c16.9,63.1,39.4,125.2,64.8,185.4c27.8,66.1,58.9,132.4,106,187.2c28.4,33.1,64.1,55.6,101,77.5
		C319.2,2234.9,400.9,2294.3,433.3,2390.6z"/>
	<path class="st3" d="M931.1,1752.8H148.9c-54.7,0-99.1-44.4-99.1-99.1V832.6c0-54.7,44.4-99.1,99.1-99.1h782.3
		c54.7,0,99.1,44.4,99.1,99.1v821.1C1030.2,1708.4,985.9,1752.8,931.1,1752.8z"/>
	<rect x="49.8" y="556.6" class="st7" width="508.9" height="56.1"/>
	<text transform="matrix(1 0 0 1 49.7873 612.1319)" class="st3 st8 st9">ONGI ETORRI!</text>
</g>
</svg>
